<svg preserveAspectRatio="none" overflow="visible" style="display: block;" width="215" height="244" viewBox="0 0 215 244" fill="none" xmlns="http://www.w3.org/2000/svg">
<g id="Fico TL">
<path id="Vector" d="M122.225 5.63389C125.755 6.1608 129.243 6.68771 132.813 7.09302C145.875 8.67375 162.426 13.497 172.406 22.6977V23.5083C172.73 23.6299 173.014 23.7515 173.339 23.8731C174.434 24.3189 174.434 24.3189 175.651 25.1296V25.9402C175.894 26.0618 176.138 26.1834 176.422 26.305C177.274 26.7508 177.274 26.7508 178.085 27.5615V28.7774C178.288 28.8585 178.531 28.9395 178.734 29.0206C180.073 29.7907 181.209 30.804 182.142 32.0199V33.2359C182.385 33.3169 182.628 33.4385 182.872 33.5196C184.008 34.1681 184.616 34.9787 185.387 36.0731V36.8837C185.792 37.0053 186.198 37.1674 186.604 37.289V38.0997C187.009 38.2213 187.415 38.3834 187.821 38.505C189.849 40.6126 191.431 43.0445 192.892 45.598C193.5 46.6518 194.19 47.6651 194.839 48.7189C201.289 58.7708 206.157 68.7821 209.24 80.3336C209.28 80.4957 209.28 80.4957 209.483 81.2253C211.755 89.7369 212.728 98.0864 212.566 106.922C212.566 107.652 212.566 108.341 212.607 109.03C212.444 115.353 208.226 121.919 205.548 127.431C204.575 129.458 203.682 131.484 202.79 133.511C200.559 138.618 197.922 143.239 194.433 147.575C193.5 148.751 192.689 149.926 191.877 151.183H191.066C190.985 151.466 190.863 151.75 190.782 152.034C189.687 154.425 188.105 156.249 186.198 158.073L185.103 159.411C184.819 159.775 184.494 160.14 184.17 160.505H183.359V161.316C182.831 161.437 182.304 161.599 181.736 161.721V162.532C181.533 162.653 181.533 162.653 180.478 163.18C176.949 165.126 173.825 167.152 170.783 169.827C162.832 176.718 162.832 176.718 160.642 176.718C160.52 177.123 160.358 177.528 160.236 177.934C159.587 178.501 158.897 179.068 158.167 179.595C154.313 182.716 151.555 186.486 148.675 190.498C148.066 191.309 147.458 192.12 146.849 192.93C146.727 193.052 146.727 193.052 146.241 193.741C145.875 194.227 145.47 194.754 145.105 195.241C141.292 200.388 140.724 205.981 141.413 212.223C141.778 214.412 142.346 216.56 142.995 218.668C143.807 221.708 143.401 224.058 142.346 227.017C142.427 228.841 143.604 229.773 144.861 231.03C146.038 232.246 146.078 232.935 146.078 234.516C146.078 234.84 146.038 235.205 146.038 235.529V236.299C144.699 237.191 143.766 237.393 142.184 237.677C134.963 239.177 134.963 239.177 132.651 241.568C131.191 241.811 131.191 241.811 129.811 241.568C128.351 240.19 128.108 238.285 127.702 236.38C127.621 236.096 127.58 235.772 127.499 235.407C127.296 234.637 127.134 233.827 126.972 233.056C126.607 233.016 126.242 232.975 125.836 232.894C123.199 232.367 121.455 230.625 119.954 228.436C118.98 226.815 118.169 225.193 117.398 223.491C117.317 223.288 117.317 223.288 116.83 222.275C116.465 221.424 116.059 220.613 115.735 219.762C113.544 215.02 110.259 212.993 105.472 211.169C99.3057 209.102 92.8962 208.454 86.4462 207.886C70.1793 206.346 50.2208 203.387 36.1038 194.552V193.741C35.8198 193.7 35.5764 193.7 35.2925 193.66C33.5075 193.173 32.2094 192.16 30.7085 191.066C30.384 190.863 30.1 190.66 29.7755 190.458L27.5849 188.877V188.066C27.3009 187.985 27.017 187.864 26.6925 187.783C25.4349 187.175 24.6236 186.526 23.6094 185.553C22.3925 184.419 21.1755 183.324 19.8774 182.23C9.41132 173.07 2.96132 159.613 1.21698 145.914C1.13585 145.427 1.09528 144.9 1.01415 144.414C0.365094 139.469 0.283962 134.605 0.324528 129.62V128.363C0.324528 121.838 0.527358 115.312 0.851887 108.827C1.13585 103.801 1.25755 98.816 1.25755 93.79V92.9794C1.21698 90.0611 1.21698 87.1023 1.17642 84.1841C1.09528 75.3076 1.50094 66.4718 3.04245 57.7169C3.20472 56.8253 3.36698 55.9336 3.48868 55.0419C4.38113 49.8133 5.55755 44.6658 7.62642 39.7615C7.74811 39.3967 7.86981 39.0724 8.03208 38.7076C12.5349 27.8452 18.7009 17.6718 29.9377 12.808C31.5198 12.1595 33.1425 11.7136 34.8462 11.3488C35.1708 11.3083 35.4547 11.2272 35.7792 11.1462C39.7953 10.295 43.8519 9.80864 47.9085 9.2412C56.7519 8.02525 65.4736 6.60664 74.2359 4.90432C77.8462 4.17475 81.4566 3.48571 85.067 2.9588C85.3915 2.87774 85.716 2.83721 86.0406 2.79668C97.9264 1.05382 110.502 3.76944 122.225 5.63389ZM83.566 10.9435V11.3488H88.8396V10.9435H83.566ZM70.9906 11.7542V12.5648C72.8566 12.4432 74.7226 12.2811 76.6698 12.1595V11.7542H70.9906ZM154.962 25.1296C156.301 26.305 157.234 26.9535 159.019 27.1561C157.761 25.6565 156.909 25.2917 154.962 25.1296ZM32.7774 26.9535C32.6557 27.0751 32.6557 27.0751 31.8849 27.7641C31.6821 27.9668 31.4792 28.1694 31.2359 28.3721L32.0472 29.1827L35.6981 25.5349C34.1566 25.5349 33.8726 25.9402 32.7774 26.9535ZM19.066 62.8239V74.9834H19.4717V62.8239H19.066ZM19.066 77.4153V83.495H19.4717V77.4153H19.066ZM200.396 83.0897C200.437 83.6571 200.477 84.2246 200.559 84.792C200.559 85.1163 200.599 85.4405 200.64 85.7648C200.802 86.7781 201.126 87.4671 201.613 88.3588H202.425C202.262 87.6292 202.059 86.8997 201.857 86.1701C201.776 85.7648 201.654 85.3595 201.573 84.9542C201.208 83.9003 201.208 83.9003 200.396 83.0897ZM18.6604 84.3057V90.7907H19.066V84.3057H18.6604ZM17.8491 102.95V108.219H18.2547V102.95H17.8491ZM17.4434 108.219V115.515H17.8491V108.219H17.4434ZM17.8491 116.731V121.595H18.2547V116.731H17.8491ZM18.2547 124.837V132.944C18.5387 133.065 18.7821 133.227 19.066 133.349V124.837H18.2547ZM18.6604 145.508V151.993H19.066V145.508H18.6604ZM19.066 151.993C18.9849 153.939 19.1472 155.439 19.8774 157.262C20.3236 155.884 20.2019 155.317 19.9179 153.939L19.6745 152.845C19.5934 152.561 19.5528 152.277 19.4717 151.993H19.066ZM21.9057 162.126C22.1085 162.734 22.2708 163.342 22.4736 163.91C22.5547 164.274 22.6764 164.599 22.7981 164.923C23.1226 165.774 23.1226 165.774 23.934 166.179C23.7717 164.234 23.4066 163.383 21.9057 162.126ZM24.3396 167.395C24.9887 169.706 24.9887 169.706 26.3679 170.638C25.7189 168.287 25.7189 168.287 24.3396 167.395ZM37.7264 180.771C38.7 181.865 39.5925 182.311 40.9717 182.797C40.7283 182.027 40.7283 182.027 40.1604 181.176C38.9028 180.852 38.9028 180.852 37.7264 180.771ZM41.783 182.797C42.6755 183.811 43.4462 184.256 44.7038 184.702C44.9877 184.783 45.2717 184.905 45.5962 184.986C45.7991 185.067 46.0019 185.148 46.2453 185.229V184.419C45.7179 184.135 45.2311 183.892 44.7038 183.608C44.4198 183.446 44.1359 183.324 43.8113 183.162C43 182.797 43 182.797 41.783 182.797ZM60.4434 188.877C60.5651 189.161 60.7274 189.404 60.8491 189.688C61.9038 189.809 62.9991 189.971 64.0943 190.093V189.282C62.7962 188.999 61.7821 188.877 60.4434 188.877ZM96.5472 196.578C97.8047 197.429 98.5755 197.591 100.076 197.835C100.482 197.916 100.888 197.997 101.293 198.037C101.618 198.118 101.902 198.159 102.226 198.199V197.389C100.279 196.862 98.616 196.456 96.5472 196.578ZM133.462 209.953C133.584 211.169 133.746 212.345 133.868 213.601C134.274 213.723 134.679 213.885 135.085 214.007C134.801 212.669 134.558 211.332 134.274 209.953H133.462Z" fill="#754BDB"/>
<path id="Vector_2" d="M85.5943 10.5382H98.5755V11.3488C98.8594 11.2272 99.1028 11.0651 99.3868 10.9435C102.47 10.8219 105.472 11.1867 108.555 11.5515C109.042 11.592 109.528 11.6731 110.015 11.7136C111.192 11.8757 112.408 11.9973 113.585 12.1595V12.9701C113.747 12.9296 113.747 12.9296 114.518 12.7269C116.587 12.5243 118.453 12.9296 120.481 13.3754V14.186C120.725 14.186 120.927 14.2266 121.171 14.2266C124.335 14.4698 127.337 15.1588 130.42 15.8884C130.704 15.9289 130.947 16.01 131.231 16.091C139.507 18.0365 147.376 20.8332 154.962 24.7243V25.5349C155.206 25.6159 155.49 25.7375 155.733 25.8591C156.139 26.0213 156.585 26.1834 156.991 26.3455C157.112 26.386 157.112 26.386 157.802 26.6698C160.358 27.7236 162.508 29.1827 164.698 30.804V31.6146C164.82 31.6551 164.82 31.6551 165.347 31.8983C167.457 33.0738 169.12 34.7761 170.783 36.4784C171.27 36.9648 171.757 37.4106 172.203 37.897C175.408 41.0585 178.531 44.2605 181.33 47.8272C181.533 48.0299 181.695 48.2326 181.898 48.4352C183.277 49.9754 184.251 51.5156 185.225 53.3395C186.076 54.8392 187.131 56.1767 188.186 57.5548C189.281 59.1355 190.174 60.7568 191.066 62.4186C191.228 62.7023 191.391 63.0266 191.553 63.3103C193.784 67.404 195.853 71.5382 197.638 75.8346C197.962 76.6047 198.287 77.3747 198.652 78.1043C199.788 80.6578 200.599 82.9681 201.005 85.7648C201.208 86.7375 201.492 87.4266 201.978 88.3183C204.25 92.493 204.209 97.1136 204.047 101.734C204.047 102.261 204.007 102.788 204.007 103.315C203.885 106.436 203.358 109.192 202.384 112.191C201.978 113.569 201.816 114.907 201.613 116.326C201.289 117.582 200.842 118.757 200.396 119.973C200.275 120.379 200.153 120.744 199.991 121.149C198.368 125.769 195.812 129.742 193.094 133.754H192.283C192.202 134.038 192.08 134.322 191.958 134.646C189.768 139.631 184.17 144.738 180.113 148.346H179.302C179.18 148.751 179.018 149.156 178.896 149.561C177.76 150.818 176.625 151.791 175.205 152.723C172.081 154.749 169.485 156.817 167.132 159.694C166.483 160.424 165.834 161.072 165.104 161.721H164.292V162.532C163.359 163.585 162.832 164.112 161.453 164.558C160.763 165.207 160.074 165.896 159.425 166.585L157.924 168.084C157.802 168.247 157.802 168.247 157.112 168.936L156.26 169.787C155.976 170.07 155.692 170.314 155.408 170.597C153.826 172.219 152.163 173.759 150.419 175.258C144.78 180.244 139.547 187.377 136.302 194.146C136.221 194.308 136.221 194.308 135.815 195.078C133.787 199.74 132.57 208.697 134.274 213.601C134.558 213.723 134.801 213.885 135.085 214.007C135.247 215.425 135.085 216.033 134.436 217.33C133.341 218.587 132.651 218.911 131.028 219.276V220.086C130.379 220.249 129.73 220.37 129.081 220.532C128.757 220.613 128.392 220.694 128.026 220.775C126.931 220.897 126.363 220.938 125.349 220.492C122.875 217.857 121.252 214.858 119.792 211.575C117.52 206.346 114.234 202.293 108.798 200.104C106.608 199.375 104.417 198.807 102.226 198.199V197.389C101.861 197.348 101.537 197.348 101.172 197.348C97.967 197.146 94.8434 196.781 91.6792 196.173V195.362C91.4764 195.362 91.4764 195.362 90.5434 195.443C88.7991 195.443 87.2575 194.957 85.5538 194.47C84.4179 194.146 83.2821 193.944 82.1057 193.781C80.1179 193.457 78.2113 193.052 76.3047 192.565C72.2481 191.593 68.1915 190.823 64.0943 190.093V189.282C63.8509 189.282 63.567 189.323 63.3236 189.323C60.1594 189.404 57.3604 188.877 54.3179 188.107C54.0745 188.066 54.0745 188.066 52.8981 187.783C50.4236 187.175 50.4236 187.175 49.4906 186.85C49.3689 186.567 49.2066 186.324 49.0849 186.04C48.1519 185.756 47.1783 185.472 46.2453 185.229V184.419C45.0283 183.892 43.8519 183.527 42.5538 183.243C41.0528 182.878 40.4443 182.311 39.3491 181.176C38.7 181.014 38.0104 180.811 37.3613 180.69C35.333 179.92 33.3453 178.42 31.8038 176.88C31.2359 176.312 31.2358 176.312 30.4245 175.907C27.8689 174.61 26.4896 171.124 25.2726 168.692C24.7453 167.801 24.7453 167.801 23.934 167.395C23.7311 166.666 23.7311 166.666 23.6094 165.734C23.2443 163.991 22.6764 162.937 21.5811 161.599C20.2425 159.735 19.9991 157.546 19.634 155.317C19.5934 155.155 19.5934 155.155 19.4717 154.344C19.3094 153.574 19.1877 152.763 19.066 151.993H18.2547C17.7274 145.67 17.8085 139.348 17.8085 132.984V128.566C17.8491 125.688 17.8491 122.851 17.8491 119.973H17.4434C17.4028 117.704 17.4434 115.393 17.6057 113.124C17.8491 108.989 17.8896 104.896 17.8491 100.802C17.7679 94.8033 17.8491 88.8046 18.2142 82.8465C18.2547 82.5628 18.2547 82.2791 18.2953 81.9953C18.5792 77.5774 18.5792 77.5774 19.066 76.6047C19.1066 75.9967 19.1066 75.3887 19.1066 74.8213V73.6864V72.4299V71.214V67.2419V64.5262C19.066 62.3375 19.066 60.1488 19.066 57.9601H19.8774C19.7962 57.7575 19.7557 57.5548 19.6745 57.3522C19.3906 55.9336 19.5123 54.5555 19.634 53.0963C19.634 52.9342 19.634 52.9342 19.6745 52.2047C19.7557 50.8671 19.8774 49.5296 20.283 48.2326H21.0943C21.1349 47.9894 21.1755 47.7056 21.216 47.4625C22.9198 40.1668 27.4632 31.2093 33.6698 26.913C34.5217 26.305 35.2925 25.6159 36.0632 24.9269C37.7264 23.4678 39.4708 22.2518 41.3774 21.0764C41.783 20.8332 42.1887 20.59 42.5943 20.3063C50.5858 15.5236 60.3217 11.9973 69.7736 12.1189C70.1387 12.1189 70.5443 12.1595 70.95 12.1595H71.8019V11.3488C76.3858 10.903 80.9698 10.903 85.5943 10.9435V10.5382ZM19.066 77.4153V83.495H19.4717V77.4153H19.066ZM18.6604 84.3056V90.7907H19.066V84.3056H18.6604ZM18.2547 124.837V132.944C18.5387 133.065 18.7821 133.227 19.066 133.349V124.837H18.2547Z" fill="#FEEAC5"/>
<path id="Vector_3" d="M93.0991 37.897C95.2085 37.9375 96.75 38.0997 98.5755 39.3156C98.8594 39.6399 99.1434 40.0047 99.4274 40.3289C101.212 41.8691 103.241 42.1123 105.472 42.5581C105.593 42.9635 105.756 43.3688 105.877 43.7741C106.04 43.6525 106.04 43.6525 106.81 43.0851C107.216 42.8013 107.581 42.4771 108.027 42.1934C108.392 41.8691 108.798 41.5854 109.204 41.2611C111.435 39.802 113.828 39.9236 116.425 40.1262C118.696 40.6532 120.765 41.6664 122.144 43.612C123.037 45.0711 123.645 46.5708 124.132 48.2326C124.822 48.111 125.471 47.9488 126.16 47.8272V48.6379C127.053 48.6379 127.053 48.6379 128.189 48.2326C128.757 47.4625 129.203 46.6924 129.649 45.8412C130.825 44.0578 132.367 42.8824 134.233 41.9907C136.261 41.5854 137.965 41.788 139.872 42.6797C141.859 44.2199 142.671 45.7601 143.198 48.2326C143.239 49.408 143.239 49.408 143.198 50.2591C143.563 50.2186 143.888 50.2186 144.253 50.1781C145.835 50.2591 146.727 50.6645 148.066 51.4751C148.188 51.7588 148.35 52.002 148.472 52.2857C148.796 52.2047 149.161 52.1236 149.486 52.002C153.948 50.9076 157.761 50.2997 161.858 52.7721C163.927 54.3123 164.901 56.2578 165.509 58.7708C165.712 60.8784 165.672 62.8239 165.104 64.8505C165.347 64.9721 165.631 65.0532 165.875 65.1748C166.726 65.6611 166.726 65.6611 167.132 66.8771H167.943C168.268 67.404 168.633 67.9309 168.958 68.4578C169.16 68.7415 169.323 69.0252 169.525 69.3495C169.972 70.1196 169.972 70.1196 169.972 70.9302H170.783C171.189 72.1462 171.189 72.1462 170.824 73.0379C170.661 73.2811 170.54 73.5243 170.377 73.7674C170.864 73.808 171.351 73.8485 171.878 73.889C174.312 74.2133 175.489 75.105 176.99 77.0505C178.531 79.1987 178.775 80.8199 178.491 83.495C177.598 85.2784 176.341 86.6159 174.84 87.9535H174.028V88.7641C174.434 88.8857 174.84 89.0478 175.245 89.1694C175.205 89.4937 175.124 89.8179 175.083 90.1422C175.002 90.588 174.921 90.9934 174.84 91.4392C174.758 91.885 174.677 92.2904 174.596 92.7362C174.434 93.9927 174.393 95.2086 174.434 96.4651C174.799 96.6678 175.164 96.911 175.529 97.1136C177.152 98.208 178.409 99.586 179.302 101.329C179.626 104.126 179.342 106.314 177.679 108.625C175.894 110.489 174.028 111.219 171.594 111.867C171.554 112.151 171.513 112.475 171.432 112.799C171.392 113.205 171.31 113.569 171.229 114.015C171.189 114.177 171.189 114.177 171.026 115.191C170.783 116.326 170.783 116.326 170.337 117.177C169.647 118.595 170.215 120.136 170.58 121.595C171.189 124.108 170.945 126.296 169.688 128.566C168.592 130.106 167.294 131.12 165.509 131.728C164.617 131.768 163.684 131.768 162.792 131.768C162.305 131.768 161.859 131.728 161.331 131.728H160.236C159.627 132.944 159.1 134.119 158.613 135.375H157.802V136.186C157.599 136.308 157.599 136.308 156.585 136.997C156.585 137.361 156.625 137.686 156.625 138.05C156.788 142.914 156.788 142.914 154.962 145.103C152.934 146.927 150.987 147.859 148.228 148.021C146.727 147.9 145.713 147.413 144.415 146.724C144.131 146.927 143.888 147.13 143.604 147.332C143.239 147.575 142.914 147.859 142.549 148.102C142.184 148.386 141.859 148.629 141.494 148.913C140.277 149.602 139.304 149.805 137.925 149.967C137.925 150.332 137.884 150.656 137.884 151.021C137.681 154.749 137.154 156.938 134.517 159.613C133.016 160.748 131.191 160.667 129.406 160.505C128.594 160.14 128.594 160.14 127.783 159.694C125.592 158.478 123.686 158.803 121.292 159.289C121.292 159.654 121.333 160.019 121.333 160.383C121.414 164.842 121.13 167.882 118.007 171.165C116.1 172.867 113.666 173.475 111.151 173.475C109.731 173.232 109.731 173.232 108.311 172.664C108.19 172.624 108.19 172.624 107.541 172.381C105.309 171.246 104.376 169.584 103.119 167.517C101.456 164.72 101.456 164.72 99.7519 164.072C98.6566 163.991 97.6425 163.991 96.5472 164.153C96.3849 164.477 96.2632 164.801 96.1009 165.126C93.7075 170.314 93.7075 170.314 91.2736 171.448C89.367 171.813 87.8255 171.773 86.0811 170.841C83.4849 167.882 81.9434 164.477 81.9434 160.505C81.5377 160.627 81.1321 160.789 80.7264 160.91C79.7934 160.464 78.9009 160.019 78.0085 159.532C77.8868 159.451 77.8868 159.451 77.2783 159.086C76.6698 158.762 76.0613 158.438 75.4528 158.073V157.262C74.0736 157.141 73.384 157.303 72.0858 157.87C69.9764 158.722 68.4349 158.843 66.366 158.154C63.8104 156.979 61.7821 155.398 60.0377 153.209V152.399C59.6321 152.358 59.2264 152.318 58.7802 152.318C54.1151 151.385 50.5047 147.211 47.9085 143.441C46.6104 141.496 45.5962 139.469 44.5821 137.361C44.4198 136.997 44.2575 136.632 44.0547 136.227C42.6349 133.187 41.4991 130.106 40.566 126.864C40.4443 126.418 40.2821 125.972 40.1604 125.526C39.6736 123.743 39.3896 121.959 39.1057 120.136C39.0651 119.811 39.0245 119.447 38.9434 119.082C38.6594 116.974 38.4566 114.907 38.416 112.799C38.2943 110.53 37.8075 109.314 36.266 107.652C34.8462 105.99 35.1302 103.437 35.2925 101.329C35.4547 100.883 35.5764 100.437 35.7387 99.9914C36.1038 98.897 36.1038 98.897 35.7387 98.0053C34.4 94.5601 35.1302 90.0206 36.4689 86.6565C37.2802 84.5083 37.3208 83.3329 36.7123 81.1442C36.3066 79.2797 36.6311 77.5774 37.483 75.8751C38.984 73.8485 38.984 73.8485 40.6472 73.4837C41.0123 73.4432 41.3774 73.4027 41.783 73.3621V72.5515H40.9717C41.2557 68.7415 42.7566 66.2286 45.0283 63.2292C45.2311 62.986 45.3934 62.7429 45.5962 62.4591C48.233 59.095 52.1274 56.3794 56.3868 55.5282V54.7176L57.766 53.3395C58.5368 52.5694 59.1453 51.7183 59.7943 50.8671C61.7415 48.3542 64.2566 45.8817 67.4208 45.1927C68.1915 45.1116 69.0028 45.0306 69.7736 44.99V44.1794C70.017 44.0578 70.2604 43.9767 70.5038 43.8551C73.2623 42.6392 73.2623 42.6392 74.6009 41.9096C78.5358 40.1262 82.3896 39.9641 86.6491 39.9641C89.5292 39.8831 90.6245 38.3834 93.0991 37.897ZM18.2547 84.3056H18.6604C18.6604 86.697 18.7009 89.0884 18.7009 91.4797V93.9522C18.7415 95.087 18.7415 96.2625 18.7415 97.4379V98.5322V99.586V100.478C18.6604 101.45 18.3358 102.099 17.8491 102.95V97.9243C17.8085 97.3568 17.8085 96.7894 17.8085 96.2219C17.8085 92.2093 17.9302 88.2777 18.2547 84.3056ZM17.8491 121.595C17.9708 121.676 17.9708 121.676 18.6604 122V151.993H18.2547C17.7274 145.63 17.8085 139.266 17.8085 132.903C17.8085 131.809 17.8491 130.714 17.8491 129.62V121.595Z" fill="#F6D4D0"/>
<path id="Vector_4" d="M96.1415 38.0997C98.3726 38.8292 99.7113 40.2478 101.009 42.1528C101.983 44.2199 102.064 46.4086 102.226 48.6379C102.267 48.9621 102.267 49.2864 102.308 49.6106C102.429 51.9209 101.942 53.6233 100.604 55.5282C99.2245 56.9874 97.6425 58.2033 95.6141 58.487C92.4094 58.5681 90.3811 57.8385 88.0689 55.6093C86.5679 53.3395 86.1623 50.9887 86.4057 48.2326C87.1358 44.9495 88.3528 41.2611 90.7462 38.8698C92.5717 37.8159 94.0726 37.8159 96.1415 38.0997ZM120.806 42.0718C122.956 44.2199 124.092 46.9355 124.132 50.0159C123.889 54.1096 122.225 57.19 119.264 59.9867C117.155 61.8106 115.37 62.297 112.571 62.1349C109.812 61.7701 107.987 60.0678 106.283 57.9601C104.539 55.0013 104.214 51.4751 104.944 48.1515C105.837 45.0306 106.648 42.9229 109.366 41.0179C113.098 39.194 117.358 39.8831 120.806 42.0718ZM139.872 42.6392C141.859 44.2199 142.671 45.7601 143.198 48.2326C143.685 52.4478 141.697 56.1767 139.182 59.4193C137.641 61.1621 136.261 62.7834 133.868 63.2292C131.596 63.3914 130.176 63.3103 128.189 62.0133C126.282 59.9462 125.998 58.3249 126.039 55.6093C126.444 51.2319 128.189 46.8139 131.393 43.8146C134.111 41.6259 136.708 41.2206 139.872 42.6392ZM78.0085 46.0033C81.1726 47.8678 83.2415 51.0698 84.2962 54.5149C84.7019 58.6492 84.0528 62.1349 81.3349 65.4179C79.7123 67.1203 78.0491 67.6066 75.7774 67.7688C72.816 67.6066 70.6255 66.5528 68.4755 64.4857C66.0415 61.6485 65.3925 58.5681 65.5547 54.8797C65.9604 51.5561 67.4208 48.5973 69.7736 46.206C72.0858 44.7063 75.5745 44.909 78.0085 46.0033ZM162.589 53.3395C164.779 55.4066 165.591 58.0817 165.712 61.0405C165.631 63.2292 164.982 64.6478 163.887 66.4718C163.562 67.1608 163.278 67.8093 162.954 68.4983C161.534 71.3355 159.668 73.8485 156.666 75.1455C154.394 75.7535 151.92 75.8751 149.81 74.7402C146.687 72.6326 144.131 69.6738 142.995 66.0664C142.427 62.9455 143.117 59.2166 144.618 56.3794C145.308 55.4877 145.997 54.6771 146.849 53.907C146.971 53.7854 146.971 53.7854 147.539 53.2585C151.595 49.9349 158.491 50.2186 162.589 53.3395ZM61.6604 59.4598C64.9868 61.8106 64.9868 61.8106 65.717 63.6345H66.5283C67.867 65.9043 68.3538 67.485 68.1509 70.1196C68.4755 69.8359 68.8 69.5927 69.1651 69.309C70.7877 68.2551 71.9236 68.2551 73.8302 68.4983C75.0472 69.0658 75.0472 69.0658 75.8585 70.1196C76.2236 71.984 76.183 73.5648 75.25 75.2266C73.8302 76.0372 72.5726 76.1588 70.9906 75.794C69.8547 75.2266 69.4085 74.7402 68.5566 73.7674C68.3943 72.4299 68.3943 72.4299 68.5566 71.3355L67.7047 72.1867C63.6887 76.2399 63.6887 76.2399 61.0113 76.3615C58.6585 76.3615 57.0764 75.4698 55.1698 74.1728V73.3621H54.3585C52.0868 69.7548 50.5858 67.1608 51.5189 62.8239C52.2085 61.0811 53.1009 59.703 54.7641 58.7708C57.1981 58.0412 59.4292 58.2033 61.6604 59.4598ZM92.0849 59.5814C93.383 60.2299 94.1943 60.7973 95.0868 61.9322C95.4519 63.3508 95.3708 64.6478 94.9245 66.0664C94.0321 66.9581 93.2208 67.5256 92.0849 68.093C89.8538 68.093 87.7443 67.9309 86 66.4718C84.9453 65.0937 85.0264 63.7156 85.1887 62.0133C87.0141 58.7708 88.6368 58.9329 92.0849 59.5814ZM111.557 66.0664C113.423 67.1608 115.045 68.3362 116.059 70.3223C116.911 73.5648 116.262 76.4425 114.802 79.4419C113.504 80.9415 112.003 81.9953 110.34 83.0897C110.624 83.0897 110.908 83.0492 111.232 83.0492C116.384 82.9681 116.384 82.9681 118.534 84.5894C119.71 86.1296 120.522 87.386 120.441 89.3316C120.035 92.1688 118.818 94.3575 116.587 96.1814C114.437 97.6811 112.449 97.9648 109.934 97.6811C107.784 96.9515 106.526 95.6139 105.472 93.6279C104.498 91.5608 104.458 89.6963 105.066 87.5482C106.04 85.8053 107.419 84.8731 109.123 83.9003C108.676 83.9003 108.23 83.8598 107.784 83.8598C103.443 83.7382 98.9811 83.495 95.7358 80.2525C94.8028 78.8744 94.6811 77.9422 94.4783 76.3209C94.3972 75.8345 94.316 75.3482 94.2755 74.8618C94.1943 74.497 94.1538 74.1322 94.1132 73.7674C93.7075 73.6458 93.3019 73.4837 92.8962 73.3621C93.0179 72.4299 93.1802 71.4977 93.3019 70.5249H94.1132C94.2349 70.1196 94.3972 69.7143 94.5189 69.309C94.8028 69.1468 95.0868 68.9847 95.4113 68.8226C96.7906 67.9309 97.4396 66.9581 98.3321 65.5801C101.537 61.9728 107.865 64.4452 111.557 66.0664ZM135.491 67.2824C137.235 68.2551 138.533 69.2279 139.547 70.9302C139.993 72.8352 140.115 74.4159 139.547 76.2804C137.478 79.1581 134.152 81.59 130.623 82.2791C127.337 82.5223 124.254 81.5495 121.698 79.4419C120.157 77.4558 119.751 75.794 119.873 73.2405C120.238 71.3355 121.049 70.1601 122.509 68.9037C126.931 66.2286 130.623 65.1747 135.491 67.2824ZM89.4481 69.998C91.3142 71.6193 92.2877 74.2133 92.6123 76.6452C92.7745 79.1581 92.0849 80.7794 90.4623 82.6844C89.5698 83.5761 88.5962 84.3462 87.6226 85.1163L86.8113 85.9269C87.217 85.9269 87.6226 85.9674 88.0283 85.9674C94.0726 86.2917 98.1292 87.8319 102.632 92.0066C105.107 94.8439 106.689 98.0458 107.5 101.734C107.257 105.26 106.486 108.544 103.849 111.056C102.105 112.475 100.725 112.718 98.4943 112.921C98.0481 112.921 97.6019 112.961 97.1557 113.002C96.8311 113.043 96.5066 113.043 96.1415 113.083C96.3443 113.245 96.5877 113.367 96.7906 113.529C98.616 114.826 99.9141 115.961 101.009 117.947V118.757H101.821C101.78 118.312 101.78 117.906 101.74 117.46C101.861 115.393 102.389 114.502 103.89 113.124C105.634 112.475 107.013 112.84 108.717 113.488C110.258 114.583 110.664 115.718 111.151 117.542C111.273 119.041 111.273 119.041 111.273 120.622C111.273 121.108 111.273 121.635 111.313 122.162C111.151 123.824 110.705 124.878 109.528 126.053C107.622 126.337 106.283 126.337 104.701 125.202C103.849 124.027 103.2 122.892 102.632 121.595C102.592 121.878 102.551 122.203 102.51 122.527C101.537 129.174 101.537 129.174 99.5896 131.12C98.8594 131.606 98.2104 131.849 97.3585 132.133C97.0745 132.214 96.8311 132.336 96.5472 132.417C92.5717 133.268 87.9472 130.876 84.6208 128.85C82.7141 127.472 81.4972 125.891 80.7264 123.621C80.3613 120.744 80.6047 118.271 82.3491 115.92C85.1075 112.718 88.8802 112.191 92.8962 111.867C92.7745 111.786 92.7745 111.786 92.1255 111.34C91.3953 110.813 90.6651 110.327 89.9349 109.8C89.2858 109.354 88.6368 108.908 87.9472 108.462C84.7425 106.274 82.0245 102.748 81.1321 98.897C80.9292 97.6811 80.8075 96.4651 80.7264 95.2492C80.6453 95.3302 80.6453 95.3302 80.1179 95.7761C79.8745 95.9787 79.6311 96.2219 79.3472 96.4246C79.1038 96.6678 78.8604 96.8704 78.5764 97.1136C77.8868 97.6811 77.8868 97.6811 77.0755 98.0864C77.2783 98.1674 77.4811 98.2485 77.684 98.3701C80.5641 99.8292 81.6594 102.018 82.7547 104.977C83.4849 107.611 83.2009 109.719 82.0651 112.191C81.2132 113.61 80.5641 114.258 79.1038 115.11C76.9538 115.474 75.7774 115.231 73.9519 114.137C72.0453 112.718 71.1123 111.3 70.5849 109.03C70.1792 105.828 70.5443 102.91 72.2075 100.113C73.3434 99.0591 73.3434 99.0591 74.2358 98.4917C74.033 98.3296 73.8302 98.1674 73.6274 98.0458C70.95 95.8571 70.95 95.8571 70.5849 94.0332C70.7472 92.493 70.7472 92.493 70.9906 91.196L70.2604 91.0744C66.934 90.3043 64.7028 88.4804 62.4717 85.9269C61.6198 84.2651 61.4981 82.9276 61.6604 81.0631C62.4717 78.7528 63.9321 77.2937 66.1226 76.1993C68.1915 75.9967 70.017 75.9561 71.9641 76.7668C73.384 78.1448 74.1953 79.685 75.0472 81.4684C75.1283 81.59 75.1283 81.59 75.4528 82.2791C75.4934 83.0086 75.4934 83.7787 75.4934 84.5083V85.7242C75.4528 86.7375 75.4528 86.7375 75.0472 87.5482L75.8991 87.305C77.4406 87.1023 78.4547 87.386 79.9151 87.9535C80.9698 89.0478 81.4566 89.7774 81.9434 91.196C82.1462 90.9528 82.3491 90.6691 82.5519 90.4259C82.7953 90.0611 83.0387 89.7369 83.3226 89.4126C83.566 89.0478 83.8094 88.7236 84.0934 88.3993C84.783 87.5482 84.783 87.5482 85.5943 87.1429C85.716 86.7375 85.8783 86.3322 86 85.9269C85.8783 85.9269 85.8783 85.9269 85.3104 85.9674C82.5519 86.0485 80.6453 85.6027 78.4141 83.8598C76.8321 81.8737 75.8179 79.5229 75.6151 76.9694C76.0207 74.3754 77.1972 72.592 79.3066 70.9708C82.5113 68.9847 86 67.7688 89.4481 69.998ZM50.7481 75.0239C53.7906 77.0505 56.2245 80.4146 57.1981 83.9003C57.5632 85.9269 57.3604 87.4671 56.3462 89.291C55.0075 91.1555 53.6283 92.0877 51.3972 92.6551C48.0708 93.1821 45.3934 92.0472 42.4726 90.507C39.0651 87.7103 37.1585 84.5488 36.55 80.1714C36.3877 77.8206 36.9962 76.3615 38.416 74.4565C42.1075 71.7003 47.0566 72.9568 50.7481 75.0239ZM175.245 74.9834C176.868 76.4831 178.328 78.1854 178.612 80.4146C178.653 82.7654 178.491 84.103 176.868 85.9269C173.704 89.21 170.012 90.4259 165.55 90.507C163.278 90.507 161.899 90.3854 160.236 88.7641C158.289 86.6159 157.599 84.9947 157.68 82.1169C158.005 79.4419 159.384 77.5369 161.453 75.8751C165.225 73.5242 171.27 72.592 175.245 74.9834ZM147.66 78.1448C150.541 79.8066 153.34 81.509 154.557 84.711C154.881 87.305 154.394 89.4126 152.934 91.6013C151.149 93.3442 149.445 93.9116 147.011 94.1953C144.375 94.1548 142.062 92.8173 140.196 91.0744C138.776 88.6831 138.127 86.697 138.33 83.9003C138.736 82.8465 139.141 81.9143 139.669 80.9415C139.791 80.6983 139.912 80.4146 140.034 80.1714C140.561 79.1176 141.008 78.3475 141.981 77.6585C143.969 77.0505 145.794 77.2532 147.66 78.1448ZM133.219 88.0345C135.693 89.3721 137.722 90.6691 139.263 93.0605C139.466 93.3442 139.669 93.6684 139.872 93.9927C140.805 95.6545 140.886 96.992 140.764 98.897C139.993 100.761 138.817 101.532 137.113 102.545C133.746 103.68 130.866 102.829 127.783 101.329C127.296 101.126 126.809 100.924 126.323 100.68C124.092 99.3834 122.428 96.7083 121.292 94.4385C121.13 92.2904 121.171 90.7907 122.388 88.9668C125.349 85.5216 129.527 86.2106 133.219 88.0345ZM66.1226 91.6013C68.8406 94.9249 69.7736 97.4379 69.3679 101.734C68.7189 104.085 67.4208 105.747 65.3113 107.003C63.2425 107.449 61.417 107.247 59.5509 106.233C57.6038 104.855 56.5896 103.031 55.5755 100.924C55.4132 100.559 55.2104 100.194 55.0075 99.8292C53.8717 97.2352 53.8717 95.3708 54.7236 92.6551C55.3321 91.2771 55.9406 90.4259 57.1981 89.5747C60.2406 88.3993 63.7698 89.4937 66.1226 91.6013ZM51.1132 96.8704C53.7094 99.5455 55.5755 102.221 55.7377 105.99C55.616 108.949 54.5208 111.056 52.6141 113.326C50.7887 114.866 48.8415 114.866 46.5698 114.785C42.7566 114.461 39.8358 112.151 37.3613 109.354C35.333 106.801 35.0085 104.571 35.2925 101.329C36.266 98.6538 37.767 96.7083 40.3226 95.5329C44.2981 93.9522 47.8274 94.0738 51.1132 96.8704ZM151.96 96.1003C153.705 97.4784 155.287 99.1402 155.774 101.329C155.895 104.004 155.368 105.909 153.624 107.976C152.447 109.111 151.392 109.8 149.729 109.881C147.701 109.719 146.362 109.151 144.821 107.814C143.239 105.787 142.955 104.166 143.036 101.613C143.36 99.4644 144.293 98.1674 145.875 96.7083C147.782 95.4518 149.81 95.2086 151.96 96.1003ZM176.057 97.2757C177.517 98.6133 179.18 100.153 179.383 102.18C179.464 104.693 179.18 106.557 177.679 108.625C175.691 110.732 173.42 111.786 170.54 111.908C166.037 111.624 162.264 110.084 159.019 107.003C157.599 105.382 157.153 104.207 157.275 102.099C157.558 100.397 158.086 99.3429 159.425 98.2485C164.374 94.8438 170.742 94.0332 176.057 97.2757ZM122.834 98.7754C124.781 99.9508 126.079 101.694 126.972 103.761C127.296 105.706 127.175 107.044 126.12 108.746C123.483 111.178 121.049 111.989 117.52 111.948C114.193 111.746 111.597 111.138 109.204 108.665C108.392 107.247 108.149 106.112 108.474 104.49C109.204 102.099 110.177 100.194 112.327 98.8159C115.775 97.0326 119.345 97.1947 122.834 98.7754ZM141.17 105.787C143.239 107.165 144.577 108.665 145.226 111.056C145.551 114.583 145.673 117.542 143.36 120.419C140.805 122.892 140.805 122.892 139.142 123.216C136.018 123.175 133.99 122.081 131.758 119.933C129.325 117.298 128.473 115.312 128.432 111.664C128.432 111.138 128.432 110.651 128.392 110.124C128.675 108.057 129.527 106.801 131.069 105.463C134.03 103.639 138.168 104.328 141.17 105.787ZM64.0943 109.638C65.1491 110.935 65.2302 111.786 65.1085 113.407C64.8245 114.583 64.2566 115.312 63.2424 116.001C61.7821 116.609 60.3623 116.65 58.8208 116.326C57.6443 115.596 56.9953 115.11 56.3868 113.894C56.1434 110.975 56.1434 110.975 57.117 109.678C59.3075 108.138 61.7415 108.462 64.0943 109.638ZM164.374 114.096C167.375 115.677 168.998 117.704 170.377 120.784C171.108 123.135 171.148 125.526 170.134 127.796C169.039 129.701 167.619 131.039 165.509 131.728C160.966 132.173 156.991 130.795 153.34 128.08C151.19 126.094 149.486 123.946 149.161 120.906C149.08 118.676 149.161 116.974 150.5 115.11C154.273 111.34 159.83 112.11 164.374 114.096ZM124.903 115.069C127.54 116.447 129.446 118.474 130.42 121.351C130.947 124.108 131.353 127.431 130.055 129.985C128.189 132.254 125.958 133.47 122.956 133.754C120.319 133.754 118.088 133.025 116.019 131.322C115.613 130.674 115.208 129.985 114.802 129.296C114.396 129.174 113.991 129.012 113.585 128.89C112.003 126.256 111.678 123.419 111.962 120.379C112.774 117.704 114.031 116.569 116.303 115.069C118.777 114.096 122.347 114.258 124.903 115.069ZM71.8019 116.731C74.033 117.947 75.4934 119.852 76.4264 122.203C76.9943 124.472 77.0755 126.742 76.1424 128.89C75.8991 129.174 75.6962 129.417 75.4528 129.701L74.966 130.431C73.9519 131.079 73.0594 131.201 71.883 131.12C69.0028 130.431 66.8123 127.229 65.3113 124.837C64.4189 122.932 64.2566 121.189 64.9057 119.163C66.8934 116.731 68.7189 116.204 71.8019 116.731ZM55.1292 117.663C55.616 117.704 56.1028 117.744 56.6302 117.785C58.983 118.068 60.8896 118.96 62.4717 120.784C64.5406 124.472 65.1085 128.363 64.2566 132.538C63.2019 135.902 61.2547 138.091 58.2528 139.834C56.1434 140.401 54.3179 140.726 52.2896 139.874C48.517 137.686 46.4075 134.2 45.1906 130.106C44.5415 126.823 45.1094 124.391 46.6915 121.473C47.9085 119.69 49.4094 118.433 51.4377 117.663C52.6953 117.501 53.8717 117.582 55.1292 117.663ZM147.863 127.877C151.555 130.025 155.043 133.633 156.382 137.767C156.909 139.955 156.828 141.658 156.017 143.765C154.638 145.792 152.609 147.17 150.297 147.819C148.269 148.143 146.687 148.021 144.902 146.967C141.129 144.211 137.803 141.131 136.302 136.591C136.018 133.592 136.099 130.998 137.925 128.485C140.642 125.932 144.658 126.458 147.863 127.877ZM111.273 131.12C113.909 132.579 115.654 134.241 116.83 136.997C117.155 138.74 116.952 139.996 116.141 141.577C114.802 143.117 113.788 143.725 111.8 144.211C108.798 144.373 106.973 143.279 104.823 141.334C104.579 141.171 104.376 140.969 104.133 140.766C99.9142 137.118 99.9142 137.118 99.7113 134.97V133.997V133.065C99.7925 132.011 99.9953 131.403 100.604 130.512C103.687 128.363 108.23 129.701 111.273 131.12ZM91.8821 134.727C93.6264 136.672 94.5594 138.902 94.9245 141.455C95.1679 141.131 95.4113 140.807 95.6953 140.442C96.7094 139.388 97.5208 139.266 98.9811 139.185C100.32 139.266 101.05 139.429 102.267 139.996C103.241 141.334 103.281 142.185 103.2 143.765C102.916 145.427 102.389 146.643 101.131 147.697C99.7113 148.062 98.7783 147.94 97.3585 147.535C96.1821 146.481 95.3708 145.184 94.5189 143.887C94.1132 144.211 93.7481 144.576 93.3425 144.9C91.8821 145.914 90.7462 146.238 88.9613 146.116C85.3915 145.306 82.5519 142.023 80.6453 139.064C79.8745 137.564 79.7528 136.186 80.0774 134.524C80.5236 133.187 81.2538 132.538 82.3491 131.728C85.5943 130.39 89.5292 132.538 91.8821 134.727ZM74.317 135.254C77.2377 137.443 79.9962 139.753 80.7264 143.482C81.0104 147.656 79.7528 151.183 77.0755 154.425C74.7226 156.776 72.4509 158.276 69.1245 158.641C66.1632 158.559 63.6481 156.938 61.4981 154.993C59.1453 152.439 58.1717 149.116 57.9689 145.67C58.0906 142.347 59.7943 139.753 62.066 137.402C65.4736 134.605 70.3009 132.579 74.317 135.254ZM130.42 137.361C134.03 139.104 135.531 141.982 136.789 145.67C137.438 147.778 137.6 149.764 137.641 151.953V152.804C137.681 155.114 137.113 156.654 135.693 158.438L134.517 159.613C133.016 160.748 131.191 160.667 129.406 160.505C127.215 159.735 125.674 158.6 124.132 156.857L123.524 156.249C120.846 153.452 119.994 150.291 119.873 146.481C119.954 143.482 120.359 140.969 122.388 138.658C124.741 136.551 127.458 136.348 130.42 137.361ZM111.557 146.684C113.707 147.738 114.599 148.508 115.37 150.777C115.654 151.75 115.694 152.601 115.613 153.615C115.857 153.655 116.059 153.696 116.303 153.736C117.763 154.182 118.858 154.628 119.751 155.965C121.495 159.289 121.901 163.18 120.846 166.828C119.873 169.422 118.25 171.286 115.857 172.624C113.098 173.475 111.07 173.759 108.311 172.664C108.068 172.583 107.825 172.462 107.541 172.381C103.768 170.516 101.293 165.734 99.9547 161.924C98.9406 158.073 98.6566 153.898 100.563 150.291C100.725 150.048 100.847 149.805 101.009 149.561C101.172 149.197 101.375 148.791 101.537 148.427C104.011 145.184 108.068 145.144 111.557 146.684ZM92.3283 148.913C94.6406 150.372 95.7358 153.007 96.7094 155.439C97.5208 160.1 96.75 165.004 93.9915 168.936C92.9774 170.233 92.0443 171.327 90.3406 171.57C88.6774 171.611 87.5415 171.611 86.0811 170.841C82.7953 167.112 81.7 162.937 81.8623 157.992C82.1057 154.628 82.9575 152.155 85.1887 149.561C87.5009 147.9 89.7726 147.94 92.3283 148.913Z" fill="#E3523D"/>
<path id="Vector_5" d="M111.962 151.588C113.301 152.155 113.909 152.682 114.64 153.939C114.721 154.06 114.721 154.06 115.167 154.709C116.303 157.019 116.546 159.046 116.506 161.559C116.546 161.883 116.546 162.167 116.546 162.491C116.546 164.031 116.506 165.288 115.613 166.585C115.329 166.463 115.086 166.301 114.802 166.179C114.842 165.652 114.842 165.166 114.842 164.639C114.964 160.87 115.005 157.789 113.179 154.425C113.058 154.02 112.895 153.615 112.774 153.209H111.962C111.841 152.804 111.678 152.399 111.557 151.993L111.962 151.588ZM141.981 226.977C142.143 227.26 142.265 227.544 142.427 227.828C143.239 229.044 144.131 230.098 145.105 231.233C146.038 232.327 146.078 233.097 146.078 234.516C146.078 234.84 146.038 235.205 146.038 235.529V236.299C144.699 237.191 143.766 237.393 142.184 237.677C134.963 239.177 134.963 239.177 132.651 241.568C131.191 241.811 131.191 241.811 129.811 241.568C128.351 240.19 128.108 238.285 127.702 236.38C127.621 236.096 127.58 235.772 127.499 235.448C127.296 234.637 127.134 233.867 126.972 233.056C127.377 232.894 127.742 232.692 128.148 232.53C129.406 231.841 129.406 231.841 130.014 230.625C130.785 229.044 131.434 228.841 133.057 228.193C134.558 228.112 134.558 228.112 136.14 228.193C138.492 228.314 139.993 226.977 141.981 226.977Z" fill="#F6857C"/>
<path id="Vector_6" d="M154.962 57.9601H158.208C158.735 59.5003 158.654 60.7568 158.613 62.4186H156.179C155.774 60.9595 155.368 59.4598 154.962 57.9601ZM9.73585 60.392H10.5472C11.034 62.2565 10.9934 64.0804 10.9934 65.9854V67.1608C10.9934 69.6332 10.9528 72.0651 10.8717 74.5375C10.8311 75.794 10.7906 77.01 10.75 78.2664C10.75 78.5907 10.7094 78.9149 10.7094 79.2392C10.5877 84.3462 10.5472 89.4532 10.5472 94.5601V95.4924V104.896C10.5877 115.961 10.5877 115.961 10.2632 120.865C10.0604 123.581 10.0198 126.296 9.93868 129.012C9.89811 129.944 9.89811 130.917 9.85755 131.89C9.57358 143.279 9.57359 143.279 10.2226 147.9C10.2632 148.264 10.3443 148.629 10.3849 149.035C11.9264 159.127 16.267 166.423 22.7981 174.164C23.5283 175.096 23.5283 175.096 23.934 176.312C24.6642 176.718 24.6642 176.718 25.5566 177.123C26.084 177.528 26.6519 177.934 27.1792 178.339C27.0575 178.744 26.8953 179.149 26.7736 179.555H25.9623V178.744C25.7189 178.663 25.516 178.542 25.2726 178.46C21.4594 176.353 18.7415 172.016 16.3075 168.53C15.8613 167.882 15.4557 167.274 15.0094 166.666C8.92453 157.87 8.19434 146.359 8.3566 136.105C8.3566 135.132 8.39717 134.2 8.39717 133.227C8.39717 129.701 8.4783 126.175 8.68113 122.608C8.92453 118.19 9.00566 113.732 9.04623 109.273V105.26C9.08679 102.423 9.08679 99.5455 9.12736 96.7083C9.16792 92.9389 9.16792 89.21 9.20849 85.4405C9.20849 84.9947 9.20849 84.5488 9.24906 84.0625C9.28962 76.1588 9.45189 68.2957 9.73585 60.392ZM98.5755 65.2558C98.9 67.4445 97.7236 68.8226 96.5472 70.5249C96.1415 70.4439 96.1415 70.4439 94.1132 70.1196C93.9915 70.4033 93.8293 70.6465 93.7076 70.9302C93.8293 68.8226 95.0462 67.4445 96.5472 66.0664C97.967 65.2558 97.967 65.2558 98.5755 65.2558ZM113.991 148.751C116.749 149.967 118.372 152.318 119.426 155.033C119.67 155.641 119.873 156.249 120.075 156.857H118.858V155.641H116.019C115.897 155.925 115.735 156.168 115.613 156.452C114.802 154.993 113.991 153.493 113.179 151.993H113.991V148.751ZM34.4811 186.04C36.7528 186.283 38.6594 187.094 40.7283 188.026C40.8906 188.107 40.8906 188.107 41.7425 188.431C42.716 188.877 43.6491 189.282 44.6226 189.688C45.5557 190.093 46.5292 190.498 47.4623 190.904V191.714C42.8377 190.904 38.3349 189.12 34.4811 186.445V186.04Z" fill="#341682"/>
</g>
</svg>
